<svg version="1.1" id="Слой_1" xmlns="http://www.w3.org/2000/svg" xmlns:xlink="http://www.w3.org/1999/xlink" x="0px" y="0px"
	 viewBox="0 0 9 14" style="enable-background:new 0 0 9 14;" xml:space="preserve">
<style type="text/css">
	.st0{opacity:0.3;}
</style>
<title>Монтажная область 1</title>
<g class="st0">
	<path class="arrow_active" d="M0.6,6.9c0-0.4,0.2-0.7,0.5-0.9l5.8-5.4c0.4-0.3,0.9-0.3,1.2,0c0.3,0.3,0.3,0.8,0,1.1c0,0,0,0,0,0L2.6,6.9L8.1,12
		c0.3,0.3,0.3,0.8,0,1.1c0,0,0,0,0,0c-0.4,0.3-0.9,0.3-1.2,0L1.1,7.8C0.8,7.6,0.6,7.2,0.6,6.9z"/>
</g>
</svg>
