<svg width="111" height="27" viewBox="0 0 111 27" fill="none" xmlns="http://www.w3.org/2000/svg">
<rect width="110.4" height="26.5" fill="black" fill-opacity="0"/>
<path d="M8.7 14V22.7H11.1V0H7.5C3.9 0 0.9 2.4 0.9 7.1C0.9 10.5 2.2 12.3 4.2 13.3L0 22.7H2.8L6.7 14H8.7ZM8.7 11.9H7.4C5.3 11.9 3.5 10.7 3.5 7.1C3.5 3.3 5.4 2 7.4 2H8.7V11.9V11.9Z" fill="#FF0000"/>
<path d="M35.6 20.6H34.3V6.7H26.9V8.1C26.9 12.3 26.7 17.3 25.3 20.7H24.3V25.9H26.5V22.8H33.4V25.9H35.6V20.6V20.6ZM46.3 21.6L45.7 19.7C45.1 20.1 44 20.8 42.6 20.8C40.6 20.8 39.6 18.9 39.6 15.3H46.3V13.9C46.3 8.5 44.6 6.5 41.9 6.5C38.5 6.5 37.1 10.2 37.1 15.4C37.1 20.3 39.1 22.9 42.4 22.9C44 22.9 45.3 22.4 46.3 21.6ZM20.4 6.7V13.5H16.7V6.7H14.2V22.7H16.7V15.5H20.4V22.7H22.8V6.7H20.4ZM55.5 22.7H58.2L53.7 14.2L57.7 6.7H55.2L51.4 14.1V6.7H48.9V22.7H51.4V14.8L55.5 22.7ZM64 22.9C65.5 22.9 66.5 22.4 67.3 21.7L66.7 19.9C66.1 20.4 65.2 20.9 64 20.9C62 20.9 61 18.6 61 14.6C61 10.6 62.3 8.6 64 8.6C65 8.6 66 9.1 66.6 9.7L66.9 7.3C66.2 6.9 65.4 6.5 64 6.5C60.3 6.5 58.3 9.7 58.3 14.7C58.6 20.1 60.6 22.9 64 22.9ZM31.9 20.6H27.7C29 17.2 29.2 12.3 29.2 8.9V8.7H32V20.6H31.9ZM41.9 8.5C43.3 8.5 43.8 10.5 43.8 13.2H39.7C39.8 10.4 40.4 8.5 41.9 8.5ZM83 21.4H75.9C76.7 20.4 77.3 18.1 77.5 14.7C77.8 11.4 78 7 78 1.3H83V21.4ZM84.9 26.4H86.1V21.3H84.5V0H76.6C76.5 6.3 76.4 11.3 76.1 14.7C75.8 17.9 75.2 20.5 74.1 21.4H73.4V26.5H74.6L74.8 22.7H84.5L84.9 26.4ZM92.6 23C95.4 23 97.5 19.9 97.5 14.6C97.5 9.1 95.4 6.4 92.6 6.4C89.8 6.4 87.7 9.5 87.7 14.8C87.7 20.2 89.8 23 92.6 23ZM92.6 21.8C90.7 21.8 89.2 19.7 89.2 14.7C89.2 9.8 90.7 7.6 92.6 7.6C94.5 7.6 96 9.7 96 14.7C96 19.5 94.4 21.8 92.6 21.8ZM104.6 20.8H105.8L108.5 11.4C108.7 10.6 108.8 9.9 109 9H109.1C109 9.9 109 10.8 109 11.8V22.6H110.4V6.6H108.7L105.8 16.4C105.5 17.5 105.4 18.3 105.3 19.1H105.2C105.1 18.3 105 17.5 104.7 16.4L101.9 6.6H100.2V22.6H101.5V11.8C101.5 10.7 101.4 9.9 101.3 9H101.4C101.6 9.8 101.7 10.5 101.9 11.4L104.6 20.8Z" fill="black"/>
</svg>
